<mxfile host="app.diagrams.net" modified="2023-06-18T05:37:56.431Z" agent="Mozilla/5.0 (Macintosh; Intel Mac OS X 10_15_7) AppleWebKit/537.36 (KHTML, like Gecko) Chrome/114.0.0.0 Safari/537.36" etag="7xYyjKQNH4OgbuumH0XB" version="21.4.0" type="github">
  <diagram id="C5RBs43oDa-KdzZeNtuy" name="Page-1">
    <mxGraphModel dx="1710" dy="963" grid="1" gridSize="10" guides="1" tooltips="1" connect="1" arrows="1" fold="1" page="1" pageScale="1" pageWidth="1390" pageHeight="1390" math="0" shadow="0">
      <root>
        <mxCell id="WIyWlLk6GJQsqaUBKTNV-0" />
        <mxCell id="WIyWlLk6GJQsqaUBKTNV-1" parent="WIyWlLk6GJQsqaUBKTNV-0" />
        <mxCell id="TB4IOkJnu1sGNqSskwKn-11" value="" style="edgeStyle=orthogonalEdgeStyle;rounded=0;orthogonalLoop=1;jettySize=auto;html=1;" edge="1" parent="WIyWlLk6GJQsqaUBKTNV-1" source="WIyWlLk6GJQsqaUBKTNV-3" target="TB4IOkJnu1sGNqSskwKn-0">
          <mxGeometry relative="1" as="geometry" />
        </mxCell>
        <mxCell id="WIyWlLk6GJQsqaUBKTNV-3" value="사업 착수" style="rounded=1;whiteSpace=wrap;html=1;fontSize=12;glass=0;strokeWidth=1;shadow=0;arcSize=50;" parent="WIyWlLk6GJQsqaUBKTNV-1" vertex="1">
          <mxGeometry x="590" y="70" width="120" height="40" as="geometry" />
        </mxCell>
        <mxCell id="TB4IOkJnu1sGNqSskwKn-0" value="요구사항 수집&lt;br&gt;및 분석" style="rounded=0;whiteSpace=wrap;html=1;" vertex="1" parent="WIyWlLk6GJQsqaUBKTNV-1">
          <mxGeometry x="590" y="149" width="120" height="60" as="geometry" />
        </mxCell>
        <mxCell id="TB4IOkJnu1sGNqSskwKn-17" value="" style="edgeStyle=orthogonalEdgeStyle;rounded=0;orthogonalLoop=1;jettySize=auto;html=1;dashed=1;" edge="1" parent="WIyWlLk6GJQsqaUBKTNV-1" source="TB4IOkJnu1sGNqSskwKn-3" target="TB4IOkJnu1sGNqSskwKn-14">
          <mxGeometry relative="1" as="geometry" />
        </mxCell>
        <mxCell id="TB4IOkJnu1sGNqSskwKn-20" value="" style="edgeStyle=orthogonalEdgeStyle;rounded=0;orthogonalLoop=1;jettySize=auto;html=1;" edge="1" parent="WIyWlLk6GJQsqaUBKTNV-1" source="TB4IOkJnu1sGNqSskwKn-3" target="TB4IOkJnu1sGNqSskwKn-18">
          <mxGeometry relative="1" as="geometry" />
        </mxCell>
        <mxCell id="TB4IOkJnu1sGNqSskwKn-3" value="메뉴 기획 및&lt;br&gt;디자인" style="rounded=0;whiteSpace=wrap;html=1;" vertex="1" parent="WIyWlLk6GJQsqaUBKTNV-1">
          <mxGeometry x="590" y="250" width="120" height="60" as="geometry" />
        </mxCell>
        <mxCell id="TB4IOkJnu1sGNqSskwKn-4" value="" style="endArrow=classic;html=1;rounded=0;exitX=0.5;exitY=1;exitDx=0;exitDy=0;entryX=0.5;entryY=0;entryDx=0;entryDy=0;" edge="1" parent="WIyWlLk6GJQsqaUBKTNV-1" source="TB4IOkJnu1sGNqSskwKn-0" target="TB4IOkJnu1sGNqSskwKn-3">
          <mxGeometry width="50" height="50" relative="1" as="geometry">
            <mxPoint x="730" y="370" as="sourcePoint" />
            <mxPoint x="850" y="450" as="targetPoint" />
          </mxGeometry>
        </mxCell>
        <mxCell id="TB4IOkJnu1sGNqSskwKn-13" value="" style="edgeStyle=orthogonalEdgeStyle;rounded=0;orthogonalLoop=1;jettySize=auto;html=1;dashed=1;" edge="1" parent="WIyWlLk6GJQsqaUBKTNV-1" source="TB4IOkJnu1sGNqSskwKn-12" target="TB4IOkJnu1sGNqSskwKn-0">
          <mxGeometry relative="1" as="geometry" />
        </mxCell>
        <mxCell id="TB4IOkJnu1sGNqSskwKn-12" value="요구사항 정의서&lt;br&gt;(대학교)" style="shape=document;whiteSpace=wrap;html=1;boundedLbl=1;" vertex="1" parent="WIyWlLk6GJQsqaUBKTNV-1">
          <mxGeometry x="820" y="139" width="120" height="80" as="geometry" />
        </mxCell>
        <mxCell id="TB4IOkJnu1sGNqSskwKn-14" value="메뉴 구조도" style="shape=document;whiteSpace=wrap;html=1;boundedLbl=1;" vertex="1" parent="WIyWlLk6GJQsqaUBKTNV-1">
          <mxGeometry x="820" y="250" width="80" height="60" as="geometry" />
        </mxCell>
        <mxCell id="TB4IOkJnu1sGNqSskwKn-15" value="스토리보드 (SB)" style="shape=document;whiteSpace=wrap;html=1;boundedLbl=1;" vertex="1" parent="WIyWlLk6GJQsqaUBKTNV-1">
          <mxGeometry x="920" y="250" width="81" height="60" as="geometry" />
        </mxCell>
        <mxCell id="TB4IOkJnu1sGNqSskwKn-16" value="디자인 시안" style="shape=document;whiteSpace=wrap;html=1;boundedLbl=1;" vertex="1" parent="WIyWlLk6GJQsqaUBKTNV-1">
          <mxGeometry x="1020" y="250" width="70" height="60" as="geometry" />
        </mxCell>
        <mxCell id="TB4IOkJnu1sGNqSskwKn-18" value="대학교 측&lt;br&gt;컨펌" style="rhombus;whiteSpace=wrap;html=1;" vertex="1" parent="WIyWlLk6GJQsqaUBKTNV-1">
          <mxGeometry x="590" y="350" width="120" height="60" as="geometry" />
        </mxCell>
        <mxCell id="TB4IOkJnu1sGNqSskwKn-32" value="" style="edgeStyle=orthogonalEdgeStyle;rounded=0;orthogonalLoop=1;jettySize=auto;html=1;dashed=1;" edge="1" parent="WIyWlLk6GJQsqaUBKTNV-1" source="TB4IOkJnu1sGNqSskwKn-21" target="TB4IOkJnu1sGNqSskwKn-31">
          <mxGeometry relative="1" as="geometry" />
        </mxCell>
        <mxCell id="TB4IOkJnu1sGNqSskwKn-21" value="퍼블리싱" style="whiteSpace=wrap;html=1;" vertex="1" parent="WIyWlLk6GJQsqaUBKTNV-1">
          <mxGeometry x="450" y="530" width="120" height="60" as="geometry" />
        </mxCell>
        <mxCell id="TB4IOkJnu1sGNqSskwKn-58" value="" style="edgeStyle=orthogonalEdgeStyle;rounded=0;orthogonalLoop=1;jettySize=auto;html=1;" edge="1" parent="WIyWlLk6GJQsqaUBKTNV-1" source="TB4IOkJnu1sGNqSskwKn-23" target="TB4IOkJnu1sGNqSskwKn-57">
          <mxGeometry relative="1" as="geometry" />
        </mxCell>
        <mxCell id="TB4IOkJnu1sGNqSskwKn-23" value="데이터베이스 설계" style="whiteSpace=wrap;html=1;" vertex="1" parent="WIyWlLk6GJQsqaUBKTNV-1">
          <mxGeometry x="1010" y="530" width="120" height="60" as="geometry" />
        </mxCell>
        <mxCell id="TB4IOkJnu1sGNqSskwKn-25" value="" style="endArrow=classic;html=1;rounded=0;exitX=0.5;exitY=1;exitDx=0;exitDy=0;edgeStyle=orthogonalEdgeStyle;entryX=0.5;entryY=0;entryDx=0;entryDy=0;" edge="1" parent="WIyWlLk6GJQsqaUBKTNV-1" source="TB4IOkJnu1sGNqSskwKn-18" target="TB4IOkJnu1sGNqSskwKn-35">
          <mxGeometry width="50" height="50" relative="1" as="geometry">
            <mxPoint x="770" y="500" as="sourcePoint" />
            <mxPoint x="300" y="450" as="targetPoint" />
          </mxGeometry>
        </mxCell>
        <mxCell id="TB4IOkJnu1sGNqSskwKn-26" value="Yes" style="endArrow=classic;html=1;rounded=0;exitX=0.5;exitY=1;exitDx=0;exitDy=0;edgeStyle=orthogonalEdgeStyle;entryX=0.5;entryY=0;entryDx=0;entryDy=0;" edge="1" parent="WIyWlLk6GJQsqaUBKTNV-1" source="TB4IOkJnu1sGNqSskwKn-18" target="TB4IOkJnu1sGNqSskwKn-37">
          <mxGeometry x="-0.8095" y="20" width="50" height="50" relative="1" as="geometry">
            <mxPoint x="770" y="500" as="sourcePoint" />
            <mxPoint x="650" y="510" as="targetPoint" />
            <mxPoint as="offset" />
          </mxGeometry>
        </mxCell>
        <mxCell id="TB4IOkJnu1sGNqSskwKn-27" value="No" style="endArrow=classic;html=1;rounded=0;exitX=0;exitY=0.5;exitDx=0;exitDy=0;entryX=0;entryY=0.5;entryDx=0;entryDy=0;edgeStyle=orthogonalEdgeStyle;" edge="1" parent="WIyWlLk6GJQsqaUBKTNV-1" source="TB4IOkJnu1sGNqSskwKn-18" target="TB4IOkJnu1sGNqSskwKn-0">
          <mxGeometry x="-1" y="20" width="50" height="50" relative="1" as="geometry">
            <mxPoint x="770" y="500" as="sourcePoint" />
            <mxPoint x="820" y="450" as="targetPoint" />
            <Array as="points">
              <mxPoint x="540" y="380" />
              <mxPoint x="540" y="179" />
            </Array>
            <mxPoint as="offset" />
          </mxGeometry>
        </mxCell>
        <mxCell id="TB4IOkJnu1sGNqSskwKn-41" value="" style="edgeStyle=orthogonalEdgeStyle;rounded=0;orthogonalLoop=1;jettySize=auto;html=1;dashed=1;" edge="1" parent="WIyWlLk6GJQsqaUBKTNV-1" source="TB4IOkJnu1sGNqSskwKn-29" target="TB4IOkJnu1sGNqSskwKn-40">
          <mxGeometry relative="1" as="geometry" />
        </mxCell>
        <mxCell id="TB4IOkJnu1sGNqSskwKn-43" value="" style="edgeStyle=orthogonalEdgeStyle;rounded=0;orthogonalLoop=1;jettySize=auto;html=1;" edge="1" parent="WIyWlLk6GJQsqaUBKTNV-1" source="TB4IOkJnu1sGNqSskwKn-29" target="TB4IOkJnu1sGNqSskwKn-42">
          <mxGeometry relative="1" as="geometry" />
        </mxCell>
        <mxCell id="TB4IOkJnu1sGNqSskwKn-29" value="프로젝트 공정률 산정" style="whiteSpace=wrap;html=1;" vertex="1" parent="WIyWlLk6GJQsqaUBKTNV-1">
          <mxGeometry x="640" y="530" width="120" height="60" as="geometry" />
        </mxCell>
        <mxCell id="TB4IOkJnu1sGNqSskwKn-30" value="" style="endArrow=classic;html=1;rounded=0;exitX=0.5;exitY=1;exitDx=0;exitDy=0;edgeStyle=orthogonalEdgeStyle;entryX=0.5;entryY=0;entryDx=0;entryDy=0;" edge="1" parent="WIyWlLk6GJQsqaUBKTNV-1" source="TB4IOkJnu1sGNqSskwKn-18" target="TB4IOkJnu1sGNqSskwKn-39">
          <mxGeometry width="50" height="50" relative="1" as="geometry">
            <mxPoint x="760" y="430" as="sourcePoint" />
            <mxPoint x="960" y="500" as="targetPoint" />
          </mxGeometry>
        </mxCell>
        <mxCell id="TB4IOkJnu1sGNqSskwKn-31" value="퍼블리싱&lt;br&gt;HTML 파일" style="shape=document;whiteSpace=wrap;html=1;boundedLbl=1;" vertex="1" parent="WIyWlLk6GJQsqaUBKTNV-1">
          <mxGeometry x="450" y="660" width="120" height="80" as="geometry" />
        </mxCell>
        <mxCell id="TB4IOkJnu1sGNqSskwKn-35" value="Publisher" style="text;html=1;strokeColor=none;fillColor=none;align=center;verticalAlign=middle;whiteSpace=wrap;rounded=0;" vertex="1" parent="WIyWlLk6GJQsqaUBKTNV-1">
          <mxGeometry x="480" y="500" width="60" height="30" as="geometry" />
        </mxCell>
        <mxCell id="TB4IOkJnu1sGNqSskwKn-37" value="Project Manager (PM)" style="text;html=1;strokeColor=none;fillColor=none;align=center;verticalAlign=middle;whiteSpace=wrap;rounded=0;" vertex="1" parent="WIyWlLk6GJQsqaUBKTNV-1">
          <mxGeometry x="708" y="500" width="125" height="30" as="geometry" />
        </mxCell>
        <mxCell id="TB4IOkJnu1sGNqSskwKn-39" value="Project Leader (PL)" style="text;html=1;strokeColor=none;fillColor=none;align=center;verticalAlign=middle;whiteSpace=wrap;rounded=0;" vertex="1" parent="WIyWlLk6GJQsqaUBKTNV-1">
          <mxGeometry x="1090" y="500" width="110" height="30" as="geometry" />
        </mxCell>
        <mxCell id="TB4IOkJnu1sGNqSskwKn-40" value="프로젝트 공정률표" style="shape=document;whiteSpace=wrap;html=1;boundedLbl=1;" vertex="1" parent="WIyWlLk6GJQsqaUBKTNV-1">
          <mxGeometry x="800" y="530" width="120" height="60" as="geometry" />
        </mxCell>
        <mxCell id="TB4IOkJnu1sGNqSskwKn-45" value="" style="edgeStyle=orthogonalEdgeStyle;rounded=0;orthogonalLoop=1;jettySize=auto;html=1;dashed=1;" edge="1" parent="WIyWlLk6GJQsqaUBKTNV-1" source="TB4IOkJnu1sGNqSskwKn-42" target="TB4IOkJnu1sGNqSskwKn-44">
          <mxGeometry relative="1" as="geometry" />
        </mxCell>
        <mxCell id="TB4IOkJnu1sGNqSskwKn-42" value="협업 툴 구성" style="whiteSpace=wrap;html=1;" vertex="1" parent="WIyWlLk6GJQsqaUBKTNV-1">
          <mxGeometry x="640" y="660" width="120" height="60" as="geometry" />
        </mxCell>
        <mxCell id="TB4IOkJnu1sGNqSskwKn-44" value="Notion,&amp;nbsp;Redmine&lt;br&gt;Slack ..." style="shape=document;whiteSpace=wrap;html=1;boundedLbl=1;" vertex="1" parent="WIyWlLk6GJQsqaUBKTNV-1">
          <mxGeometry x="800" y="660" width="120" height="60" as="geometry" />
        </mxCell>
        <mxCell id="TB4IOkJnu1sGNqSskwKn-46" value="" style="edgeStyle=orthogonalEdgeStyle;rounded=0;orthogonalLoop=1;jettySize=auto;html=1;dashed=1;" edge="1" target="TB4IOkJnu1sGNqSskwKn-47" parent="WIyWlLk6GJQsqaUBKTNV-1">
          <mxGeometry relative="1" as="geometry">
            <mxPoint x="1130" y="560" as="sourcePoint" />
          </mxGeometry>
        </mxCell>
        <mxCell id="TB4IOkJnu1sGNqSskwKn-47" value="VIEW 요청서" style="shape=document;whiteSpace=wrap;html=1;boundedLbl=1;" vertex="1" parent="WIyWlLk6GJQsqaUBKTNV-1">
          <mxGeometry x="1170" y="530" width="120" height="60" as="geometry" />
        </mxCell>
        <mxCell id="TB4IOkJnu1sGNqSskwKn-49" value="Translator" style="text;html=1;strokeColor=none;fillColor=none;align=center;verticalAlign=middle;whiteSpace=wrap;rounded=0;" vertex="1" parent="WIyWlLk6GJQsqaUBKTNV-1">
          <mxGeometry x="170" y="500" width="60" height="30" as="geometry" />
        </mxCell>
        <mxCell id="TB4IOkJnu1sGNqSskwKn-53" value="" style="edgeStyle=orthogonalEdgeStyle;rounded=0;orthogonalLoop=1;jettySize=auto;html=1;dashed=1;" edge="1" parent="WIyWlLk6GJQsqaUBKTNV-1" source="TB4IOkJnu1sGNqSskwKn-50" target="TB4IOkJnu1sGNqSskwKn-51">
          <mxGeometry relative="1" as="geometry" />
        </mxCell>
        <mxCell id="TB4IOkJnu1sGNqSskwKn-70" value="" style="edgeStyle=orthogonalEdgeStyle;rounded=0;orthogonalLoop=1;jettySize=auto;html=1;entryX=0.5;entryY=0;entryDx=0;entryDy=0;" edge="1" parent="WIyWlLk6GJQsqaUBKTNV-1" source="TB4IOkJnu1sGNqSskwKn-50" target="TB4IOkJnu1sGNqSskwKn-71">
          <mxGeometry relative="1" as="geometry">
            <mxPoint x="120" y="850" as="targetPoint" />
          </mxGeometry>
        </mxCell>
        <mxCell id="TB4IOkJnu1sGNqSskwKn-50" value="SB, 메뉴구조도&lt;br&gt;번역" style="rounded=0;whiteSpace=wrap;html=1;" vertex="1" parent="WIyWlLk6GJQsqaUBKTNV-1">
          <mxGeometry x="60" y="530" width="120" height="60" as="geometry" />
        </mxCell>
        <mxCell id="TB4IOkJnu1sGNqSskwKn-51" value="번역 SB" style="shape=document;whiteSpace=wrap;html=1;boundedLbl=1;" vertex="1" parent="WIyWlLk6GJQsqaUBKTNV-1">
          <mxGeometry x="220" y="530" width="120" height="60" as="geometry" />
        </mxCell>
        <mxCell id="TB4IOkJnu1sGNqSskwKn-52" value="번역 메뉴구조도" style="shape=document;whiteSpace=wrap;html=1;boundedLbl=1;" vertex="1" parent="WIyWlLk6GJQsqaUBKTNV-1">
          <mxGeometry x="220" y="610" width="120" height="60" as="geometry" />
        </mxCell>
        <mxCell id="TB4IOkJnu1sGNqSskwKn-55" value="" style="endArrow=classic;html=1;rounded=0;entryX=0;entryY=0.5;entryDx=0;entryDy=0;exitX=1;exitY=0.5;exitDx=0;exitDy=0;dashed=1;edgeStyle=orthogonalEdgeStyle;" edge="1" parent="WIyWlLk6GJQsqaUBKTNV-1" source="TB4IOkJnu1sGNqSskwKn-50" target="TB4IOkJnu1sGNqSskwKn-52">
          <mxGeometry width="50" height="50" relative="1" as="geometry">
            <mxPoint x="170" y="560" as="sourcePoint" />
            <mxPoint x="160" y="630" as="targetPoint" />
          </mxGeometry>
        </mxCell>
        <mxCell id="TB4IOkJnu1sGNqSskwKn-56" value="" style="endArrow=classic;html=1;rounded=0;exitX=0.5;exitY=1;exitDx=0;exitDy=0;entryX=0.5;entryY=0;entryDx=0;entryDy=0;edgeStyle=orthogonalEdgeStyle;" edge="1" parent="WIyWlLk6GJQsqaUBKTNV-1" source="TB4IOkJnu1sGNqSskwKn-18" target="TB4IOkJnu1sGNqSskwKn-49">
          <mxGeometry width="50" height="50" relative="1" as="geometry">
            <mxPoint x="570" y="560" as="sourcePoint" />
            <mxPoint x="620" y="510" as="targetPoint" />
          </mxGeometry>
        </mxCell>
        <mxCell id="TB4IOkJnu1sGNqSskwKn-62" value="" style="edgeStyle=orthogonalEdgeStyle;rounded=0;orthogonalLoop=1;jettySize=auto;html=1;" edge="1" parent="WIyWlLk6GJQsqaUBKTNV-1" source="TB4IOkJnu1sGNqSskwKn-57" target="TB4IOkJnu1sGNqSskwKn-61">
          <mxGeometry relative="1" as="geometry" />
        </mxCell>
        <mxCell id="TB4IOkJnu1sGNqSskwKn-57" value="Test 데이터 &lt;br&gt;(수정) 요청" style="whiteSpace=wrap;html=1;" vertex="1" parent="WIyWlLk6GJQsqaUBKTNV-1">
          <mxGeometry x="1010" y="660" width="120" height="60" as="geometry" />
        </mxCell>
        <mxCell id="TB4IOkJnu1sGNqSskwKn-60" value="" style="edgeStyle=orthogonalEdgeStyle;rounded=0;orthogonalLoop=1;jettySize=auto;html=1;dashed=1;" edge="1" parent="WIyWlLk6GJQsqaUBKTNV-1" source="TB4IOkJnu1sGNqSskwKn-59" target="TB4IOkJnu1sGNqSskwKn-57">
          <mxGeometry relative="1" as="geometry" />
        </mxCell>
        <mxCell id="TB4IOkJnu1sGNqSskwKn-59" value="VIEW (수정) 요청서" style="shape=document;whiteSpace=wrap;html=1;boundedLbl=1;" vertex="1" parent="WIyWlLk6GJQsqaUBKTNV-1">
          <mxGeometry x="1170" y="660" width="120" height="60" as="geometry" />
        </mxCell>
        <mxCell id="TB4IOkJnu1sGNqSskwKn-65" value="Yes" style="edgeStyle=orthogonalEdgeStyle;rounded=0;orthogonalLoop=1;jettySize=auto;html=1;exitX=0.5;exitY=1;exitDx=0;exitDy=0;" edge="1" parent="WIyWlLk6GJQsqaUBKTNV-1" source="TB4IOkJnu1sGNqSskwKn-61" target="TB4IOkJnu1sGNqSskwKn-64">
          <mxGeometry x="-0.5" y="20" relative="1" as="geometry">
            <mxPoint as="offset" />
          </mxGeometry>
        </mxCell>
        <mxCell id="TB4IOkJnu1sGNqSskwKn-61" value="양식에&lt;br&gt;맞는가?" style="rhombus;whiteSpace=wrap;html=1;" vertex="1" parent="WIyWlLk6GJQsqaUBKTNV-1">
          <mxGeometry x="1010" y="760" width="120" height="60" as="geometry" />
        </mxCell>
        <mxCell id="TB4IOkJnu1sGNqSskwKn-63" value="No" style="endArrow=classic;html=1;rounded=0;exitX=0;exitY=0.5;exitDx=0;exitDy=0;entryX=0;entryY=0.5;entryDx=0;entryDy=0;edgeStyle=orthogonalEdgeStyle;" edge="1" parent="WIyWlLk6GJQsqaUBKTNV-1" source="TB4IOkJnu1sGNqSskwKn-61" target="TB4IOkJnu1sGNqSskwKn-57">
          <mxGeometry x="-0.9996" y="20" width="50" height="50" relative="1" as="geometry">
            <mxPoint x="610" y="610" as="sourcePoint" />
            <mxPoint x="1010" y="690" as="targetPoint" />
            <Array as="points">
              <mxPoint x="970" y="790" />
              <mxPoint x="970" y="690" />
            </Array>
            <mxPoint as="offset" />
          </mxGeometry>
        </mxCell>
        <mxCell id="TB4IOkJnu1sGNqSskwKn-68" value="" style="edgeStyle=orthogonalEdgeStyle;rounded=0;orthogonalLoop=1;jettySize=auto;html=1;dashed=1;" edge="1" parent="WIyWlLk6GJQsqaUBKTNV-1" source="TB4IOkJnu1sGNqSskwKn-64" target="TB4IOkJnu1sGNqSskwKn-66">
          <mxGeometry relative="1" as="geometry" />
        </mxCell>
        <mxCell id="TB4IOkJnu1sGNqSskwKn-64" value="Database 정의서&lt;br&gt;작성" style="whiteSpace=wrap;html=1;" vertex="1" parent="WIyWlLk6GJQsqaUBKTNV-1">
          <mxGeometry x="1010" y="860" width="120" height="60" as="geometry" />
        </mxCell>
        <mxCell id="TB4IOkJnu1sGNqSskwKn-66" value="Database 정의서" style="shape=document;whiteSpace=wrap;html=1;boundedLbl=1;" vertex="1" parent="WIyWlLk6GJQsqaUBKTNV-1">
          <mxGeometry x="1170" y="860" width="120" height="60" as="geometry" />
        </mxCell>
        <mxCell id="TB4IOkJnu1sGNqSskwKn-73" value="" style="edgeStyle=orthogonalEdgeStyle;rounded=0;orthogonalLoop=1;jettySize=auto;html=1;dashed=1;" edge="1" parent="WIyWlLk6GJQsqaUBKTNV-1" source="TB4IOkJnu1sGNqSskwKn-71" target="TB4IOkJnu1sGNqSskwKn-72">
          <mxGeometry relative="1" as="geometry" />
        </mxCell>
        <mxCell id="TB4IOkJnu1sGNqSskwKn-71" value="Database 정의서&lt;br&gt;번역" style="whiteSpace=wrap;html=1;" vertex="1" parent="WIyWlLk6GJQsqaUBKTNV-1">
          <mxGeometry x="60" y="860" width="120" height="60" as="geometry" />
        </mxCell>
        <mxCell id="TB4IOkJnu1sGNqSskwKn-72" value="번역 DB 정의서" style="shape=document;whiteSpace=wrap;html=1;boundedLbl=1;" vertex="1" parent="WIyWlLk6GJQsqaUBKTNV-1">
          <mxGeometry x="220" y="860" width="120" height="60" as="geometry" />
        </mxCell>
      </root>
    </mxGraphModel>
  </diagram>
</mxfile>
